<?xml version="1.0" standalone="no"?>
<!DOCTYPE svg PUBLIC "-//W3C//DTD SVG 20010904//EN"
 "http://www.w3.org/TR/2001/REC-SVG-20010904/DTD/svg10.dtd">
<svg version="1.0" xmlns="http://www.w3.org/2000/svg"
 width="1000.000000pt" height="1000.000000pt" viewBox="0 0 1000.000000 1000.000000"
 preserveAspectRatio="xMidYMid meet">
<metadata>
Created by potrace 1.11, written by Peter Selinger 2001-2013
</metadata>
<g transform="translate(0.000000,1000.000000) scale(0.100000,-0.100000)"
fill="#000000" stroke="none">
<path d="M2717 6050 c-542 -86 -907 -508 -907 -1050 0 -490 311 -897 778
-1020 364 -96 758 -2 1019 243 45 44 104 107 129 140 95 126 170 312 194 476
17 115 8 323 -19 424 -106 403 -399 685 -805 773 -85 19 -308 27 -389 14z
m323 -486 c232 -69 382 -266 397 -521 18 -300 -155 -550 -425 -613 -67 -15
-207 -15 -274 0 -254 59 -428 292 -428 572 1 296 187 528 463 578 69 12 199 4
267 -16z"/>
<path d="M4834 6046 c-273 -52 -466 -182 -555 -371 -43 -91 -59 -168 -59 -280
0 -174 46 -292 154 -393 119 -111 256 -165 613 -242 128 -28 253 -59 277 -69
120 -52 116 -189 -9 -251 -47 -23 -60 -25 -200 -25 -121 0 -160 4 -204 19 -72
25 -141 93 -166 164 l-19 52 -252 0 -251 0 9 -52 c59 -334 296 -566 644 -632
259 -48 506 -18 709 87 57 30 101 63 155 117 120 120 170 247 170 435 0 351
-192 514 -753 641 -256 57 -317 75 -347 100 -73 62 -27 181 88 225 82 31 252
31 335 -1 70 -26 121 -77 145 -142 l17 -48 247 0 248 0 0 28 c0 54 -40 187
-81 272 -83 169 -244 291 -457 346 -121 32 -346 41 -458 20z"/>
<path d="M360 5000 l0 -1020 660 0 660 0 0 235 0 235 -415 0 -415 0 0 785 0
785 -245 0 -245 0 0 -1020z"/>
<path d="M6160 5000 l0 -1020 700 0 700 0 0 235 0 235 -455 0 -455 0 0 160 0
160 415 0 415 0 0 235 0 235 -415 0 -415 0 0 155 0 155 455 0 455 0 0 235 0
235 -700 0 -700 0 0 -1020z"/>
<path d="M8037 5083 c161 -516 304 -975 318 -1020 l26 -83 312 0 313 0 299
948 c164 521 309 980 321 1020 l22 72 -262 0 -262 0 -208 -702 c-115 -387
-212 -709 -216 -716 -5 -10 -195 615 -418 1371 l-14 47 -262 0 -263 0 294
-937z"/>
<path d="M3967 3383 c30 -120 58 -235 64 -255 l10 -38 63 0 64 0 22 88 c17 68
60 282 60 299 0 2 4 3 8 3 5 0 14 -33 21 -72 12 -72 42 -208 62 -280 l10 -38
63 0 64 0 61 245 c33 135 61 249 61 255 0 5 -22 10 -48 10 l-49 0 -32 -122
c-17 -68 -38 -157 -45 -198 l-13 -75 -12 60 c-6 33 -26 121 -44 195 l-33 135
-65 3 -65 3 -37 -158 c-20 -87 -40 -176 -45 -198 l-8 -40 -12 70 c-7 39 -27
127 -45 197 l-32 128 -51 0 -52 0 55 -217z"/>
<path d="M4690 3345 l0 -255 170 0 170 0 0 50 0 50 -120 0 -120 0 0 55 0 55
110 0 110 0 0 50 0 50 -110 0 -110 0 0 50 0 50 120 0 120 0 0 50 0 50 -170 0
-170 0 0 -255z"/>
<path d="M5168 3345 l-96 -255 54 0 53 0 22 60 22 61 106 -3 106 -3 20 -57 20
-58 53 0 c46 0 53 2 48 18 -4 9 -46 123 -95 252 l-88 235 -65 3 -64 3 -96
-256z m195 57 c15 -40 27 -77 27 -83 0 -5 -30 -9 -66 -9 -54 0 -65 3 -61 14 3
8 18 49 33 91 15 42 30 72 34 68 4 -4 19 -41 33 -81z"/>
<path d="M5670 3345 l0 -255 50 0 50 0 0 95 0 95 28 0 c25 0 38 -13 96 -95
l68 -95 59 0 c32 0 59 2 59 5 0 3 -29 44 -65 92 -36 49 -65 90 -65 93 0 3 15
12 32 20 53 25 73 62 73 135 0 76 -20 109 -85 143 -39 19 -59 22 -172 22
l-128 0 0 -255z m270 128 c15 -19 19 -35 15 -53 -11 -44 -30 -54 -110 -58
l-75 -4 0 71 0 71 74 0 c69 0 76 -2 96 -27z"/>
</g>
</svg>
